# xmcd CD database file generated by OrangeCD 5.1
#
# Track frame offsets:
#	150
#	15662
#	32865
#	52102
#	64752
#	79430
#	95367
#	111980
#	127425
#	146790
#	160890
#
# Disc length: 2276 seconds
#
# Revision: 0
# Processed by: cddbd v1.4PL0 Copyright (c) Steve Scherf et al.
# Submitted via: OrangeCD 5.1
#
DISCID=a508e20b
DTITLE=Ozark Mountain Daredevils - Don't Look Down
DYEAR=1990
DGENRE=Country
TTITLE0=River to the Sun
TTITLE1=Crazy Lovin'
TTITLE2=Giving it all to the wind
TTITLE3=The fox
TTITLE4=Backroads
TTITLE5=Snowbound
TTITLE6=Following thw way that I feel
TTITLE7=Love makes the lover
TTITLE8=True believer
TTITLE9=Moon on the rise
TTITLE10=Stinghead
EXTD=
EXTT0=
EXTT1=
EXTT2=
EXTT3=
EXTT4=
EXTT5=
EXTT6=
EXTT7=
EXTT8=
EXTT9=
EXTT10=
PLAYORDER=
